PathFileType	4	(X/Y/Z)	/Users/itak/Documents/Research/Walk-IL/dataset/trc/00091_00006.trc
DataRate	CameraRate	NumFrames	NumMarkers	Units	OrigDataRate	OrigDataStartFrame	OrigNumFrames
100.000000	100.000000	4	53	mm	100.000000	258	517
Frame#	Time	RPSI			LPSI			L3			STRN			T10			C7			CLAV			RBAK			LBAK			LSHO			LUPA			LAEL			LAOL			LWTS			LWPS			LFRA			LHPS			LHTS			RSHO			RUPA			RAEL			RAOL			RWTS			RWPS			RFRA			RIFD			RHTS			RBHD			LFHD			RFHD			LBHD			LHIP			RHIP			RASI			LASI			LKNE			LTHI			LANK			LTIP			LTOE			LMT1			LMT5			LHEE			RKNE			RTHI			RANK			RTIP			RTOE			RMT1			RMT5			LIFD			RHPS			RHEE			
		X1	Y1	Z1	X2	Y2	Z2	X3	Y3	Z3	X4	Y4	Z4	X5	Y5	Z5	X6	Y6	Z6	X7	Y7	Z7	X8	Y8	Z8	X9	Y9	Z9	X10	Y10	Z10	X11	Y11	Z11	X12	Y12	Z12	X13	Y13	Z13	X14	Y14	Z14	X15	Y15	Z15	X16	Y16	Z16	X17	Y17	Z17	X18	Y18	Z18	X19	Y19	Z19	X20	Y20	Z20	X21	Y21	Z21	X22	Y22	Z22	X23	Y23	Z23	X24	Y24	Z24	X25	Y25	Z25	X26	Y26	Z26	X27	Y27	Z27	X28	Y28	Z28	X29	Y29	Z29	X30	Y30	Z30	X31	Y31	Z31	X32	Y32	Z32	X33	Y33	Z33	X34	Y34	Z34	X35	Y35	Z35	X36	Y36	Z36	X37	Y37	Z37	X38	Y38	Z38	X39	Y39	Z39	X40	Y40	Z40	X41	Y41	Z41	X42	Y42	Z42	X43	Y43	Z43	X44	Y44	Z44	X45	Y45	Z45	X46	Y46	Z46	X47	Y47	Z47	X48	Y48	Z48	X49	Y49	Z49	X50	Y50	Z50	X51	Y51	Z51	X52	Y52	Z52	X53	Y53	Z53	

259	2.58	-737.521484375	1012.83837890625	39.36384201049805	-639.7800903320312	993.7789306640625	-106.8466110229492	-685.464599609375	1067.653076171875	-33.25278854370117	-465.563232421875	1260.687744140625	99.73466491699219	-696.8322143554688	1199.734741210938	-36.79037475585938	-640.10205078125	1464.76904296875	-10.73657512664795	-486.3868408203125	1375.48046875	79.26826477050781	-737.0849609375	1329.820434570312	24.64821815490723	-612.3580932617188	1425.88916015625	-107.2585525512695	-488.0679016113281	1428.296997070312	-124.1723403930664	-487.9788208007812	1308.327026367188	-210.9580535888672	-497.9845886230469	1099.405029296875	-250.3623657226562	-584.123046875	1089.3046875	-187.5318450927734	-469.3215026855469	842.6002807617188	-205.1783599853516	-510.8931274414062	849.4215087890625	-277.8985595703125	-495.126220703125	990.6725463867188	-269.0187377929688	-494.0764770507812	763.7882080078125	-278.5015258789062	-460.6336364746094	758.2590942382812	-215.4718475341797	-673.3287353515625	1430.592407226562	172.6566162109375	-715.196533203125	1362.625366210938	225.4818572998047	-740.0914916992188	1095.439819335938	263.1153564453125	-675.5777587890625	1072.013061523438	190.6389312744141	-535.0350341796875	901.6114501953125	335.1715393066406	-610.833984375	860.216552734375	346.4450988769531	-715.9041748046875	1017.191650390625	287.2593383789062	-459.9258728027344	730.356201171875	349.0112609863281	-482.314697265625	816.8758544921875	362.3662414550781	-649.9605102539062	1617.303100585938	25.79318237304688	-451.7010192871094	1692.844116210938	90.00010681152344	-557.4596557617188	1675.38330078125	157.3587188720703	-542.3131103515625	1642.1064453125	-55.40798950195312	-497.562255859375	935.6596069335938	-115.3898696899414	-732.4639282226562	942.3041381835938	140.8201751708984	-623.2199096679688	957.8290405273438	199.9434204101562	-446.2569580078125	949.5319213867188	-3.784467697143555	-354.0964965820312	522.0774536132812	68.16204833984375	-386.1238403320312	634.58837890625	-23.43017768859863	-253.8160095214844	57.53466033935547	103.5855484008789	-297.9408874511719	285.380615234375	70.85073852539062	-157.3727722167969	143.58740234375	259.3785705566406	-223.3601684570312	119.2949447631836	255.0949554443359	-168.0905609130859	89.30580902099609	162.5885772705078	-343.6185913085938	38.59646987915039	108.8061904907227	-674.7083129882812	495.9441833496094	100.888298034668	-673.3211669921875	758.9500732421875	172.9926147460938	-803.4656372070312	45.74005508422852	-46.23220062255859	-704.2949829101562	374.5064086914062	69.49333953857422	-587.2427978515625	40.18621063232422	-9.80687427520752	-632.3349609375	48.71441268920898	-64.64545440673828	-694.2442626953125	44.59554672241211	13.13556003570557	-497.7748413085938	658.3915405273438	-208.4837646484375	-553.78515625	790.4965209960938	381.1293029785156	-828.2506103515625	57.9763298034668	-114.3996429443359	
260	2.59	-729.8101196289062	1011.693969726562	42.85759353637695	-631.1495971679688	992.8397216796875	-102.7711334228516	-677.3049926757812	1066.42626953125	-29.40302467346191	-458.564697265625	1259.840209960938	104.6110763549805	-688.8750610351562	1198.463134765625	-33.13875579833984	-632.809814453125	1463.61865234375	-7.044282913208008	-479.44482421875	1374.58203125	83.90030670166016	-729.7675170898438	1328.513427734375	27.88136100769043	-604.47216796875	1424.661865234375	-103.3418807983398	-480.1365356445312	1427.255493164062	-119.6537933349609	-479.6788940429688	1307.313598632812	-206.4696044921875	-489.5484924316406	1098.51611328125	-246.1286926269531	-575.9232177734375	1088.316528320312	-183.5387725830078	-461.5860595703125	841.4981689453125	-201.6290588378906	-502.7567749023438	848.68994140625	-274.4976196289062	-486.7897644042969	989.8385620117188	-265.0748901367188	-486.08837890625	763.0362548828125	-275.3569946289062	-452.9994201660156	757.1322631835938	-212.1984405517578	-667.014404296875	1429.47021484375	176.1979217529297	-709.1035766601562	1361.427124023438	228.7984924316406	-733.6419677734375	1094.225952148438	266.4374084472656	-668.768798828125	1070.835205078125	194.2399749755859	-529.14404296875	900.1688232421875	339.360107421875	-605.0687866210938	858.9203491210938	350.3788146972656	-709.5740966796875	1016.044189453125	290.6776123046875	-454.3798828125	728.75439453125	353.6435546875	-476.7238159179688	815.3387451171875	366.8341674804688	-642.9299926757812	1616.208251953125	29.26543426513672	-445.2731018066406	1692.029907226562	94.78810119628906	-551.4082641601562	1674.466430664062	161.4092864990234	-534.7626953125	1641.07373046875	-51.2069091796875	-488.9583435058594	934.63818359375	-110.3187942504883	-725.4473876953125	941.2298583984375	144.3326568603516	-617.0554809570312	956.7202758789062	204.1986083984375	-438.2318725585938	948.5006713867188	1.573819160461426	-347.6151123046875	520.8253784179688	74.28177642822266	-379.003173828125	633.5859985351562	-17.12625694274902	-250.6128387451172	55.93819046020508	110.2992935180664	-293.16357421875	283.6143798828125	77.41842651367188	-154.1211700439453	140.1455383300781	266.8271179199219	-220.3390960693359	116.1315765380859	262.2123718261719	-164.9159545898438	86.59416198730469	169.6370697021484	-340.5045471191406	37.55602645874023	115.1615982055664	-668.9378662109375	495.0163879394531	104.0693740844727	-667.1886596679688	757.8917236328125	176.4735260009766	-803.1211547851562	47.03434371948242	-46.25192642211914	-699.7752075195312	373.8171081542969	71.98943328857422	-587.2133178710938	40.07939910888672	-9.700820922851562	-632.0776977539062	48.81010055541992	-64.42375946044922	-694.0933227539062	44.65654754638672	13.16481113433838	-490.34130859375	657.3682861328125	-205.7723693847656	-548.2731323242188	789.1255493164062	385.3581848144531	-827.7865600585938	60.20436096191406	-114.3508911132812	
261	2.6	-722.017333984375	1010.678466796875	46.49863815307617	-622.47119140625	992.02294921875	-98.57950592041016	-669.095703125	1065.281494140625	-25.40984916687012	-451.4606018066406	1259.112915039062	109.4985961914062	-680.8776245117188	1197.279418945312	-29.38816261291504	-625.4462280273438	1462.563842773438	-3.334265947341919	-472.4033813476562	1373.810791015625	88.54972839355469	-722.3635864257812	1327.30517578125	31.18633270263672	-596.5152587890625	1423.533081054688	-99.40048980712891	-472.1264038085938	1426.32958984375	-115.1145935058594	-471.2505493164062	1306.383178710938	-201.9304046630859	-480.8899230957031	1097.688720703125	-241.7605895996094	-567.5252685546875	1087.378662109375	-179.4399566650391	-453.6183776855469	840.447265625	-197.8831024169922	-494.3109741210938	848.0164184570312	-270.9197998046875	-478.1692810058594	989.0674438476562	-260.9650573730469	-477.8051147460938	762.3568725585938	-272.0330200195312	-445.1113891601562	756.0835571289062	-208.7298278808594	-660.5845336914062	1428.46435546875	179.7704772949219	-702.8984375	1360.362182617188	232.1578216552734	-727.1385498046875	1093.12939453125	269.69189453125	-661.8757934570312	1069.781494140625	197.8057403564453	-523.42138671875	898.6510009765625	343.5320739746094	-599.4993896484375	857.6285400390625	354.2308349609375	-703.2415161132812	1015.002990722656	294.01171875	-449.1629028320312	727.00244140625	358.22802734375	-471.3902282714844	813.6636962890625	371.2740478515625	-635.8795166015625	1615.237426757812	32.75613021850586	-438.8217163085938	1691.333251953125	99.59432983398438	-545.323486328125	1673.650756835938	165.4781036376953	-527.2078247070312	1640.1845703125	-46.98413848876953	-480.3823852539062	933.7289428710938	-105.1778945922852	-718.2955932617188	940.2578125	147.9721984863281	-610.64697265625	955.6974487304688	208.4682159423828	-430.1278381347656	947.6251220703125	6.931753158569336	-341.1106262207031	519.651611328125	80.72069549560547	-371.8120422363281	632.8353881835938	-10.42427921295166	-248.5069427490234	54.15970230102539	115.6921463012695	-288.9606018066406	281.6598205566406	83.62583923339844	-151.9468536376953	135.3559875488281	273.5014343261719	-218.3707275390625	111.7680816650391	268.3469848632812	-162.8357849121094	83.14509582519531	175.5994110107422	-338.5112915039062	36.49359893798828	120.0392913818359	-662.983154296875	494.180419921875	107.349494934082	-660.9013061523438	756.9347534179688	180.0311279296875	-802.7293701171875	48.5618782043457	-46.19438934326172	-695.1476440429688	373.2373962402344	74.59949493408203	-587.1826782226562	39.99325942993164	-9.605828285217285	-631.8256225585938	48.94353485107422	-64.16307067871094	-693.9029541015625	44.76495361328125	13.2401065826416	-482.6522521972656	656.4180908203125	-202.8782806396484	-543.047607421875	787.68017578125	389.5108337402344	-827.2479248046875	62.72714614868164	-114.2179107666016	
262	2.61	-714.1392822265625	1009.803405761719	50.27764892578125	-613.7015991210938	991.3350219726562	-94.26796722412109	-660.819580078125	1064.23583984375	-21.28852462768555	-444.2503967285156	1258.5283203125	114.3970718383789	-672.8262939453125	1196.200927734375	-25.55499839782715	-618.0111083984375	1461.629760742188	0.3952962756156921	-465.2625122070312	1373.18994140625	93.21511077880859	-714.8672485351562	1326.215942382812	34.56507110595703	-588.4891967773438	1422.518676757812	-95.43573760986328	-464.0357055664062	1425.535766601562	-110.5553283691406	-462.6886901855469	1305.5498046875	-197.3373565673828	-472.0139770507812	1096.934326171875	-237.2572021484375	-558.9309692382812	1086.5068359375	-175.2367095947266	-445.4005126953125	839.4651489257812	-193.9230499267578	-485.5535278320312	847.4124145507812	-267.1511535644531	-469.2730407714844	988.36962890625	-256.6836242675781	-469.2241516113281	761.7599487304688	-268.5102844238281	-436.952880859375	755.1365966796875	-205.0480499267578	-654.0390014648438	1427.591796875	183.3794097900391	-696.57861328125	1359.443603515625	235.5660705566406	-720.587890625	1092.163330078125	272.8779296875	-654.9059448242188	1068.862182617188	201.3356475830078	-517.8646240234375	897.0726928710938	347.6832275390625	-594.1314086914062	856.35546875	357.9873352050781	-696.913330078125	1014.081115722656	297.2590942382812	-444.2846069335938	725.1297607421875	362.7542419433594	-466.3130187988281	811.8753662109375	375.6828308105469	-628.806884765625	1614.405395507812	36.26298522949219	-432.3426208496094	1690.7783203125	104.4181060791016	-539.213134765625	1672.961547851562	169.5677947998047	-519.641357421875	1639.46240234375	-42.73903656005859	-471.7859191894531	932.9461669921875	-99.95185089111328	-711.0039672851562	939.4091796875	151.7428894042969	-603.9226684570312	954.7833862304688	212.8085784912109	-421.9320983886719	946.9300537109375	12.31602478027344	-334.6849060058594	518.5643310546875	87.44429779052734	-364.6134033203125	632.2725830078125	-3.388706922531128	-247.1874389648438	52.38593292236328	119.9530410766602	-285.1936950683594	279.6405334472656	89.55754852294922	-150.5839233398438	129.4643402099609	279.5496215820312	-217.1605834960938	106.4546813964844	273.6589660644531	-161.5648956298828	79.20608520507812	180.6437683105469	-337.3295288085938	35.56781768798828	123.6527252197266	-656.8222045898438	493.4465026855469	110.7480163574219	-654.4364013671875	756.0950927734375	183.6856994628906	-802.2976684570312	50.35292053222656	-46.03325653076172	-690.37646484375	372.7797241210938	77.35422515869141	-587.1505126953125	39.92520523071289	-9.529397010803223	-631.5911254882812	49.11777114868164	-63.86315155029297	-693.6607666015625	44.92774963378906	13.38210678100586	-474.6996765136719	655.5538330078125	-199.7815246582031	-538.1134033203125	786.1763305664062	393.5706176757812	-826.6350708007812	65.57295227050781	-113.9607086181641	
